# xmcd
#
# Track frame offsets:
#	150
#	11831
#	25673
#	41728
#	56620
#	71717
#	84201
#	99970
#	113350
#	127875
#	141237
#
# Disc length: 2097 seconds
#
# Revision: 2
# Processed by: cddbd v1.5.2PL0 Copyright (c) Steve Scherf et al.
# Submitted via: audiograbber 1.83.01
#
DISCID=84082f0b
DTITLE=Jasmine Rae - Look It Up
DYEAR=2008
DGENRE=Country
TTITLE0=Pink Guitar
TTITLE1=Look It Up
TTITLE2=Unbelievable
TTITLE3=Can't A Girl Change Her Mind
TTITLE4=Country Singer
TTITLE5=Did I Just Say That?
TTITLE6=My Own Thing
TTITLE7=Heart On Ice
TTITLE8=The Red Dress
TTITLE9=As Far As You Know
TTITLE10=Ain't The Same Girl
EXTD=
EXTT0=
EXTT1=
EXTT2=
EXTT3=
EXTT4=
EXTT5=
EXTT6=
EXTT7=
EXTT8=
EXTT9=
EXTT10=
PLAYORDER=
